<svg width="26" height="26" viewBox="0 0 26 26" fill="none" xmlns="http://www.w3.org/2000/svg">
<path fill-rule="evenodd" clip-rule="evenodd" d="M2.16624 13.0004C2.16624 12.3069 2.7049 11.7388 3.38814 11.6886L3.48668 11.6849L19.4113 11.6853L14.1362 6.00055C13.6412 5.46708 13.674 4.63481 14.2095 4.14162C14.7168 3.6744 15.4933 3.67912 15.9945 4.13451L16.0754 4.21458L23.5445 12.2635C23.9302 12.6791 23.9302 13.3217 23.5445 13.7373L16.0754 21.7863C15.5804 22.3197 14.745 22.3524 14.2095 21.8592C13.7022 21.392 13.646 20.6204 14.0625 20.0869L14.1362 20.0003L19.4107 14.3161L3.48668 14.3159C2.75742 14.3159 2.16624 13.7269 2.16624 13.0004Z" fill="#FAFAFA"/>
</svg>
