<svg width="40" height="40" viewBox="0 0 40 40" fill="none" xmlns="http://www.w3.org/2000/svg">
<path d="M7.08533 28.6466C6.18493 28.8498 5.26796 28.971 4.34567 29.0087C4.02313 29.0101 3.7013 28.9784 3.38521 28.9142C3.87331 30.3943 5.8887 32.7561 11.2578 33.6378C11.2578 33.6378 11.2578 33.5118 11.2578 33.4331C11.2657 33.2968 11.2657 33.1601 11.2578 33.0237C11.2578 32.7088 11.2578 32.4097 11.2578 32.0948V31.6854C11.2578 31.213 11.3365 30.7722 11.3838 30.347V29.9219L11.4782 29.0402C11.4782 28.7095 11.5727 28.3789 11.6357 28.064H11.3523C9.91394 28.1135 8.48432 28.3087 7.08533 28.6466Z" fill="white"/>
<path d="M14.2809 28.3632L12.8953 28.1742C12.8953 28.5206 12.7851 28.8827 12.7379 29.2606C12.6906 29.6385 12.6434 30.0794 12.5962 30.5045C12.5489 30.9296 12.5174 31.3547 12.486 31.7799C12.4545 32.205 12.486 32.6458 12.486 33.071C12.486 33.4961 12.486 33.9212 12.486 34.3306C12.486 34.74 12.486 35.1336 12.486 35.5115C12.486 35.8894 12.486 36.2358 12.5804 36.5664C12.6749 36.8971 12.5804 37.1805 12.7064 37.4481C12.8323 37.7158 12.8009 37.9362 12.8323 38.1252C12.8638 38.3141 12.9741 38.7235 12.9741 38.7235C13.0685 39.2116 15.2571 39.2746 15.3516 38.6133V38.4873C15.3516 38.4873 15.3516 38.2984 15.3516 37.9677C15.3516 37.6371 15.3516 37.6213 15.3516 37.4009C15.3516 37.1805 15.4461 36.9285 15.4933 36.6609C15.5405 36.3932 15.635 36.094 15.7137 35.7791C15.7906 35.4541 15.8853 35.1334 15.9971 34.8187C16.0937 34.4714 16.2093 34.1298 16.3435 33.7952C16.4537 33.4489 16.6112 33.1025 16.7529 32.7561C16.8946 32.4097 17.0363 32.0633 17.1938 31.7326L17.6661 30.7564C17.9338 30.2053 18.2015 29.7172 18.4534 29.2764C17.6031 29.1347 16.7687 28.9457 15.9656 28.7568L14.2809 28.3632Z" fill="white"/>
<path d="M4.34566 9.65781C5.20611 9.72672 6.06228 9.4805 6.75467 8.96502L7.06958 8.63437C6.81452 8.53292 6.5511 8.4539 6.28232 8.3982C6.23775 8.41818 6.18945 8.42851 6.14061 8.42851C6.09176 8.42851 6.04347 8.41818 5.9989 8.3982C5.93349 8.33065 5.89691 8.2403 5.89691 8.14627C5.89691 8.05224 5.93349 7.9619 5.9989 7.89435C6.07763 7.78413 6.26657 7.54795 7.57342 8.11478C8.27368 7.47734 9.06422 6.94678 9.91946 6.54026C10.6371 6.12548 11.439 5.87791 12.2655 5.81598C12.2134 5.8251 12.1601 5.8251 12.108 5.81598C12.0675 5.79037 12.0324 5.75695 12.0048 5.71766C11.9773 5.67837 11.9578 5.63399 11.9475 5.58711C11.9373 5.54023 11.9364 5.49178 11.9451 5.44458C11.9537 5.39737 11.9716 5.35235 11.9978 5.31214C12.234 4.95 12.974 3.73761 12.7693 3.23377C12.7248 3.14953 12.6622 3.0762 12.586 3.01904C12.5097 2.96187 12.4218 2.92228 12.3285 2.90312C11.9066 2.82139 11.4702 2.85958 11.0689 3.01333C10.8573 3.07193 10.6414 3.11404 10.4233 3.1393C9.73052 3.48569 9.06922 3.86358 8.43941 4.25721C8.65397 4.76454 8.81748 5.29199 8.92751 5.83173C8.94206 5.9252 8.92102 6.02073 8.86854 6.09944C8.81607 6.17816 8.73598 6.23432 8.6441 6.25685C8.55985 6.25763 8.47821 6.22769 8.41445 6.17263C8.35069 6.11756 8.30919 6.04115 8.2977 5.95769C8.22432 5.5991 8.12433 5.24648 7.99854 4.90276C7.12013 5.85217 6.04557 6.59898 4.8495 7.09134C4.10567 7.89304 3.46075 8.78113 2.92859 9.73654C3.39684 9.66037 3.87185 9.63398 4.34566 9.65781Z" fill="white"/>
<path d="M6.04615 6.00494C6.31382 5.76876 6.59724 5.54833 6.8964 5.3279C6.59724 5.54833 6.31382 5.816 6.04615 6.00494Z" fill="white"/>
<path d="M36.5131 9.10675C37.0628 9.35372 37.5163 9.77406 37.8042 10.3034H37.9302C38.3157 10.2411 38.705 10.2042 39.0954 10.1932C39.2341 9.92647 39.3297 9.63951 39.3788 9.34292C38.2294 8.52417 37.3949 8.20927 36.5131 9.10675Z" fill="white"/>
<path d="M39.5362 10.1774C39.5362 10.4293 39.5362 10.697 39.6149 10.9332C39.5992 10.697 39.5677 10.4293 39.5362 10.1774Z" fill="white"/>
<path d="M39.6149 10.9332H39.4575C39.3818 11.0298 39.2974 11.1194 39.2055 11.2009C39.1417 11.2612 39.0572 11.2949 38.9694 11.2953C38.9167 11.2947 38.8649 11.2816 38.8184 11.2569C38.7718 11.2323 38.7318 11.1969 38.7017 11.1536C38.6528 11.0903 38.6252 11.0131 38.623 10.9332H38.0247H37.8042C37.7152 11.1493 37.5825 11.3447 37.4146 11.5073C37.2466 11.6698 37.0469 11.796 36.828 11.8779C36.993 12.0338 37.1456 12.2023 37.2846 12.3817C37.6041 12.1097 38.0011 11.9451 38.4193 11.9112C38.8375 11.8773 39.2558 11.9758 39.6149 12.1928C39.6354 11.7732 39.6354 11.3528 39.6149 10.9332Z" fill="white"/>
<path d="M8.26623 27.2452C8.05375 26.7969 7.754 26.3954 7.38451 26.0643C7.19313 25.8768 7.0143 25.677 6.84917 25.466C6.55398 25.6053 6.23084 25.6754 5.90445 25.6707H5.747C4.35848 25.4517 3.08047 24.7823 2.10986 23.7655C2.04445 23.698 2.00788 23.6076 2.00788 23.5136C2.00788 23.4196 2.04445 23.3292 2.10986 23.2617C2.14084 23.2278 2.17854 23.2007 2.22056 23.1822C2.26258 23.1637 2.30799 23.1541 2.35391 23.1541C2.39983 23.1541 2.44524 23.1637 2.48726 23.1822C2.52928 23.2007 2.56698 23.2278 2.59796 23.2617C3.46073 24.0979 4.56037 24.6477 5.747 24.8362C6.7547 24.8362 6.99087 24.3638 7.32152 23.5608C7.40015 23.3694 7.49496 23.185 7.60494 23.0097C6.52362 22.2155 5.58182 21.2471 4.81804 20.1441C4.76587 20.0655 4.74503 19.9702 4.75959 19.8769C4.77416 19.7837 4.82309 19.6993 4.89676 19.6403C4.96431 19.5749 5.05465 19.5383 5.14868 19.5383C5.24271 19.5383 5.33306 19.5749 5.40061 19.6403C7.57345 22.5216 9.25819 23.7655 12.3915 22.5689C12.3726 21.7783 12.5455 20.995 12.8953 20.2858C11.9436 19.4945 11.198 18.4842 10.7225 17.3415L10.5178 17.5462C9.64918 18.6525 8.40595 19.4029 7.02237 19.656H6.70746C6.15182 19.4993 5.63843 19.2199 5.20514 18.8384C4.77186 18.4569 4.42972 17.983 4.20397 17.4517C3.94837 18.1464 3.83746 18.8861 3.87808 19.6253C3.91869 20.3645 4.10996 21.0876 4.44015 21.7501C4.58186 22.1438 4.72357 22.5689 4.88102 23.0412C4.89548 23.0857 4.90081 23.1326 4.89668 23.1791C4.89255 23.2256 4.87905 23.2709 4.85698 23.3121C4.83492 23.3532 4.80475 23.3895 4.76829 23.4188C4.73183 23.448 4.68984 23.4695 4.64484 23.4821H4.53462C4.45967 23.4815 4.38693 23.4567 4.32731 23.4112C4.26769 23.3658 4.22441 23.3023 4.20397 23.2302C4.06227 22.7736 3.90482 22.3642 3.76311 21.9863C3.3585 21.1464 3.14838 20.2261 3.14838 19.2939C3.14838 18.3616 3.3585 17.4413 3.76311 16.6014L3.55842 16.2236C3.55893 16.153 3.58006 16.084 3.61923 16.0253C3.65839 15.9666 3.71388 15.9205 3.77885 15.8929C3.86252 15.8477 3.96061 15.8372 4.05194 15.8638C4.14326 15.8903 4.2205 15.9516 4.26696 16.0346L4.47164 16.444C5.00698 17.4989 5.76275 18.9475 6.88066 19.1049C7.99857 19.2624 9.21095 18.0815 10.0297 17.2155L10.3918 16.8534H10.4863C10.4863 16.6802 10.3761 16.5227 10.3289 16.3338C9.98533 14.8215 9.76418 13.284 9.66756 11.7362C9.70914 11.4284 9.68276 11.1152 9.59027 10.8187C9.49778 10.5222 9.34143 10.2495 9.13223 10.0199C8.72717 9.57506 8.24085 9.21165 7.69941 8.94927C7.52621 9.12247 7.35301 9.27992 7.19556 9.46886C6.38352 10.1393 5.35017 10.4819 4.29845 10.4293C3.5838 10.4069 2.87807 10.5929 2.26731 10.9647C2.20016 11.0915 2.14228 11.2231 2.09412 11.3583C1.90517 11.8464 1.73197 12.3187 1.57452 12.7911C1.59171 13.4904 1.4348 14.1829 1.11791 14.8065C1.09538 14.8553 1.06008 14.8972 1.01575 14.9277C0.971411 14.9582 0.919677 14.9761 0.865991 14.9797C0.475978 16.345 0.202085 17.7408 0.0472397 19.1522C0.264857 19.1109 0.469773 19.0193 0.645553 18.8845C0.684839 18.8576 0.729038 18.8387 0.77562 18.8289C0.822202 18.8191 0.870259 18.8186 0.917045 18.8274C0.963831 18.8362 1.00843 18.8541 1.0483 18.8801C1.08817 18.9061 1.12253 18.9397 1.14941 18.979C1.17629 19.0183 1.19516 19.0625 1.20496 19.109C1.21476 19.1556 1.21529 19.2037 1.20652 19.2505C1.19775 19.2972 1.17984 19.3418 1.15383 19.3817C1.12782 19.4216 1.09422 19.4559 1.05493 19.4828C0.740497 19.7006 0.379008 19.8408 0 19.8922C0 20.396 0 20.8684 0 21.3408H0.267672C0.5132 21.3751 0.748495 21.4617 0.957654 21.5948C1.16681 21.7279 1.34496 21.9044 1.48005 22.1123C1.51674 22.1485 1.54526 22.1921 1.56373 22.2402C1.5822 22.2884 1.59018 22.3399 1.58715 22.3913C1.58411 22.4428 1.57012 22.493 1.54612 22.5386C1.52212 22.5842 1.48866 22.6242 1.44797 22.6558C1.40728 22.6875 1.36031 22.7101 1.31019 22.7221C1.26007 22.7341 1.20795 22.7353 1.15733 22.7256C1.10671 22.7159 1.05875 22.6955 1.01665 22.6657C0.974557 22.636 0.939294 22.5976 0.913225 22.5531C0.836179 22.4249 0.73348 22.3139 0.611558 22.2272C0.489635 22.1405 0.351117 22.08 0.204689 22.0493C0.153392 22.0335 0.0985368 22.0335 0.0472397 22.0493C0.135257 22.8999 0.331015 23.7358 0.629811 24.537C0.913266 24.5393 1.19276 24.6038 1.44856 24.726C1.7747 24.8742 2.0858 25.0534 2.37753 25.2613C2.6098 25.465 2.88367 25.6155 3.18006 25.7025C3.47646 25.7896 3.78826 25.8109 4.09376 25.7652C4.1405 25.7586 4.1881 25.7616 4.23363 25.7741C4.27916 25.7865 4.32166 25.8082 4.35852 25.8377C4.39538 25.8672 4.42583 25.9039 4.44799 25.9456C4.47015 25.9872 4.48356 26.033 4.48739 26.0801C4.49254 26.1729 4.46326 26.2644 4.40516 26.3371C4.34706 26.4097 4.26421 26.4583 4.17248 26.4737H3.77885C3.12956 26.4675 2.50185 26.2397 1.99964 25.8281C1.7426 25.6446 1.4684 25.4865 1.18089 25.3558H0.99195C1.1683 25.7282 1.37362 26.0862 1.60601 26.4265C3.19628 28.6465 5.14868 27.7648 8.26623 27.2452ZM1.8107 15.9087C1.62176 14.3341 2.22008 12.8541 3.19628 12.5549C3.58991 12.429 4.5976 12.3345 5.52657 14.1294C6.10914 15.2474 6.67597 15.515 6.99088 15.4206C7.30578 15.3261 7.74665 14.4286 7.5577 13.1218C7.54309 13.0299 7.56557 12.936 7.62019 12.8607C7.67482 12.7854 7.75712 12.7349 7.84899 12.7203C7.94086 12.7056 8.03477 12.7281 8.11007 12.7827C8.18537 12.8374 8.23588 12.9197 8.25049 13.0115C8.48667 14.5861 8.06155 15.8142 7.21131 16.1606C6.83342 16.2708 5.87296 16.3653 4.89676 14.5861C4.4244 13.6886 3.87332 13.232 3.41671 13.3737C2.9601 13.5154 2.36178 14.5861 2.51924 15.9716C2.52817 16.0653 2.50029 16.1588 2.44152 16.2322C2.38274 16.3057 2.29767 16.3534 2.20433 16.3653C2.14421 16.3772 2.08199 16.373 2.02403 16.353C1.96607 16.3331 1.91445 16.2981 1.87442 16.2517C1.8344 16.2053 1.80742 16.1491 1.79622 16.0888C1.78503 16.0285 1.79002 15.9664 1.8107 15.9087Z" fill="white"/>
<path d="M1.02344 25.3086C0.913224 25.0567 0.787264 24.8047 0.692793 24.5371C0.786756 24.8009 0.897188 25.0586 1.02344 25.3086Z" fill="white"/>
<path d="M36.7343 18.4594L36.7178 18.4759L36.7343 18.4594Z" fill="white"/>
<path d="M32.9862 16.8376C32.4824 16.57 32.01 16.3181 31.6164 16.0661L30.9078 15.641L30.0104 15.0742L30.278 16.3023C30.6244 18.0028 31.1283 20.3173 32.0887 20.648C33.3169 19.5773 34.9386 19.6245 36.8123 18.5224C36.6144 18.6447 36.4093 18.7551 36.1982 18.853C35.2254 18.0366 34.1446 17.3584 32.9862 16.8376Z" fill="white"/>
<path d="M37.6625 13.0903C37.9316 13.724 38.0239 14.4188 37.9296 15.1008C37.8353 15.7829 37.5581 16.4266 37.1272 16.9636C37.0987 17.0131 37.0572 17.0539 37.0073 17.0816C36.9574 17.1093 36.9009 17.123 36.8438 17.1211C36.7765 17.1371 36.7064 17.1371 36.6391 17.1211C36.5629 17.0643 36.5109 16.981 36.4934 16.8876C36.4759 16.7942 36.4942 16.6977 36.5446 16.6172C36.8164 16.3208 37.0231 15.9708 37.1514 15.5897C37.2798 15.2086 37.3269 14.8048 37.2899 14.4044C37.2528 14.004 37.1323 13.6157 36.9362 13.2647C36.74 12.9136 36.4726 12.6075 36.151 12.366C35.4548 12.5945 34.7449 12.7785 34.0254 12.9171L33.4743 13.043H33.3799C33.3008 13.0423 33.2242 13.0158 33.1616 12.9675C33.0991 12.9191 33.0541 12.8517 33.0335 12.7754C33.0092 12.6835 33.0221 12.5859 33.0692 12.5034C33.1163 12.4209 33.194 12.3603 33.2854 12.3345L33.868 12.2086C34.7497 12.0196 37.017 11.5315 37.2059 10.823C37.3949 10.1144 35.2693 9.27994 34.482 8.96504L33.9939 8.7761C33.9294 8.74507 33.8755 8.6956 33.839 8.63394C33.8026 8.57228 33.7853 8.50121 33.7892 8.4297C33.7932 8.3534 33.8213 8.28032 33.8694 8.22093C33.9175 8.16154 33.9831 8.11888 34.0569 8.09905C34.2956 8.03869 34.5167 7.9232 34.7027 7.76187C34.8886 7.60053 35.0342 7.39785 35.1276 7.17008C35.175 7.01693 35.1764 6.85322 35.1316 6.69928C35.0868 6.54533 34.9978 6.40792 34.8756 6.3041C34.8102 6.23655 34.7737 6.1462 34.7737 6.05217C34.7737 5.95814 34.8102 5.8678 34.8756 5.80025C34.908 5.76594 34.9471 5.73861 34.9904 5.71992C35.0337 5.70124 35.0804 5.6916 35.1276 5.6916C35.1748 5.6916 35.2214 5.70124 35.2647 5.71992C35.3081 5.73861 35.3471 5.76594 35.3795 5.80025C35.5846 6.00056 35.7311 6.25307 35.8033 6.53054C35.8754 6.80802 35.8705 7.09992 35.7889 7.37477C35.6437 7.79611 35.3679 8.16015 35.0016 8.41396C35.2693 8.52417 35.5527 8.63439 35.8361 8.7761C36.1916 8.29862 36.7184 7.97765 37.3058 7.88074C37.8931 7.78383 38.4951 7.91854 38.9851 8.2565C38.4986 6.80884 37.7749 5.45203 36.8438 4.24148C34.8442 1.7065 30.9236 0.320919 26.4047 0.00601438C26.6567 0.84051 27.066 0.856256 27.7431 0.887746C28.1531 0.843722 28.5672 0.916433 28.9377 1.0975C29.3082 1.27857 29.62 1.56063 29.8372 1.91118C29.863 1.95016 29.8807 1.99397 29.8891 2.03995C29.8975 2.08594 29.8966 2.13316 29.8863 2.17877C29.876 2.22437 29.8566 2.26742 29.8292 2.30532C29.8018 2.34322 29.767 2.37518 29.727 2.39929C29.6656 2.4197 29.5993 2.4197 29.538 2.39929C29.477 2.40083 29.4168 2.38546 29.364 2.35489C29.3112 2.32433 29.2679 2.27975 29.2389 2.22609C29.0719 1.97034 28.8341 1.76868 28.5546 1.64567C28.275 1.52266 27.9657 1.48362 27.6643 1.5333H27.255C27.2702 1.6526 27.302 1.76919 27.3494 1.87969C27.444 2.07215 27.5027 2.28024 27.5226 2.49376C27.9888 2.50725 28.4482 2.60875 28.8767 2.79292L29.5065 3.10782C29.9123 3.37926 30.3882 3.52696 30.8764 3.53294H31.0023C31.0687 3.51015 31.1407 3.51015 31.207 3.53294C31.2639 3.49815 31.3293 3.47974 31.396 3.47974C31.4626 3.47974 31.528 3.49815 31.5849 3.53294L31.6951 3.62741C31.7757 3.66245 31.8422 3.72341 31.8841 3.80061C33.0335 4.79256 33.4586 4.95001 33.6475 4.88703C33.8365 4.82405 33.742 4.77681 33.7577 4.63511C33.9467 3.54869 31.5692 2.30481 30.7819 1.91118L30.8921 1.56479L31.1125 1.26563C32.199 1.83246 34.7339 3.15506 34.4663 4.76107C34.4532 4.93577 34.3918 5.10339 34.2889 5.2452C34.186 5.387 34.0457 5.49741 33.8837 5.56407C33.7847 5.58052 33.6836 5.58052 33.5845 5.56407C32.7425 5.34396 31.9823 4.88457 31.396 4.24148C31.2366 4.30732 31.0639 4.33431 30.8921 4.3202C30.2887 4.31864 29.6985 4.14375 29.1916 3.81635L28.609 3.53294C28.0759 3.34365 27.5089 3.26827 26.9448 3.31166C26.3807 3.35505 25.832 3.51625 25.3341 3.78486L24.2476 4.24148C24.2032 4.25492 24.1565 4.25947 24.1103 4.25487C24.0641 4.25028 24.0192 4.23662 23.9783 4.21469C23.9373 4.19276 23.9011 4.16298 23.8717 4.12705C23.8423 4.09113 23.8202 4.04975 23.8068 4.0053C23.7933 3.96084 23.7888 3.91417 23.7934 3.86796C23.798 3.82175 23.8116 3.77689 23.8335 3.73595C23.8555 3.69501 23.8853 3.65879 23.9212 3.62937C23.9571 3.59994 23.9985 3.57787 24.0429 3.56443C24.4208 3.45421 24.7672 3.32825 25.1136 3.20229C25.6533 2.96116 26.2185 2.78158 26.7984 2.66695C26.7955 2.52854 26.7576 2.39311 26.6881 2.27332C26.5627 2.01984 26.524 1.7322 26.5779 1.45457C26.3523 1.32798 26.1566 1.1541 26.0044 0.94484C25.8522 0.735579 25.7471 0.495888 25.6962 0.242193C25.6722 0.170675 25.6722 0.0932773 25.6962 0.0217599C23.5471 -0.0562449 21.3956 0.0755896 19.2721 0.41539H19.5083C19.6941 0.751642 19.9804 1.02139 20.3271 1.18691C20.9545 1.37124 21.6159 1.4089 22.2602 1.29696C22.9045 1.18503 23.5145 0.926505 24.0429 0.541352C24.0829 0.516184 24.1275 0.499445 24.1742 0.492163C24.2208 0.484881 24.2685 0.48721 24.3142 0.499006C24.3599 0.510802 24.4027 0.531816 24.44 0.560759C24.4773 0.589702 24.5083 0.625962 24.531 0.667313C24.5631 0.74172 24.568 0.824998 24.545 0.902667C24.522 0.980336 24.4725 1.04748 24.4051 1.09243C23.5108 1.65782 22.4859 1.98319 21.4292 2.03715C21.7366 2.80247 22.2161 3.48671 22.8306 4.03679C23.1901 4.39851 23.5267 4.7824 23.8383 5.18619C23.9037 5.25374 23.9402 5.34408 23.9402 5.43811C23.9402 5.53214 23.9037 5.62249 23.8383 5.69003C23.7663 5.71103 23.6898 5.71103 23.6178 5.69003C23.5625 5.69203 23.5076 5.6801 23.458 5.65534C23.4085 5.63058 23.366 5.59379 23.3344 5.54833C23.0351 5.16831 22.7144 4.80559 22.3739 4.46191C21.6045 3.77192 21.0291 2.89253 20.705 1.91118C20.4938 1.86423 20.288 1.79564 20.0909 1.7065C19.5252 1.44759 19.0761 0.987323 18.8313 0.41539C17.7606 0.604333 16.7057 0.84051 15.6822 1.12392C16.0596 1.51601 16.412 1.93146 16.7372 2.3678C17.2857 3.15246 17.9679 3.83463 18.7526 4.38318L19.3509 4.76107C20.5318 5.4696 21.4607 6.05218 21.6812 7.01263C22.3629 6.3153 23.2752 5.88994 24.2476 5.816C24.6403 5.83376 25.0229 5.94611 25.3628 6.14349C25.7027 6.34086 25.9899 6.61743 26.2 6.94965C26.2505 7.03014 26.2688 7.12667 26.2513 7.22004C26.2338 7.31341 26.1818 7.39676 26.1056 7.4535C26.0675 7.48003 26.0246 7.49865 25.9792 7.50827C25.9339 7.51789 25.887 7.51831 25.8415 7.5095C25.796 7.50069 25.7527 7.48283 25.7142 7.45698C25.6758 7.43114 25.6428 7.39783 25.6175 7.35903C25.4673 7.11828 25.2618 6.91692 25.018 6.77175C24.7743 6.62658 24.4993 6.54182 24.2161 6.52453C23.6836 6.5814 23.1694 6.75128 22.7078 7.02281C22.2462 7.29433 21.8479 7.66125 21.5395 8.09905C21.4312 8.56774 21.2562 9.01846 21.0199 9.4374C22.1972 9.7891 23.2407 10.4885 24.0134 11.4439C24.7861 12.3993 25.252 13.5659 25.3498 14.7908C25.9796 14.4444 26.1843 13.6729 26.4047 12.7911C26.5284 12.1046 26.8027 11.4539 27.2077 10.886C27.2401 10.8516 27.2792 10.8243 27.3225 10.8056C27.3658 10.7869 27.4125 10.7773 27.4597 10.7773C27.5068 10.7773 27.5535 10.7869 27.5968 10.8056C27.6401 10.8243 27.6792 10.8516 27.7116 10.886C27.7735 10.9552 27.8078 11.0449 27.8078 11.1379C27.8078 11.2308 27.7735 11.3205 27.7116 11.3898C27.3772 11.8592 27.1513 12.397 27.0503 12.9643C26.7826 13.972 26.4835 15.0899 25.3813 15.515C25.3813 16.5227 25.3813 17.5777 25.3813 18.6641C25.3737 18.7561 25.3326 18.8421 25.2659 18.9059C25.1992 18.9698 25.1114 19.0069 25.0191 19.0105C24.9231 19.0105 24.831 18.9723 24.7631 18.9044C24.6952 18.8365 24.657 18.7444 24.657 18.6483C24.7515 14.161 24.4996 11.3583 20.3113 9.97273C20.2586 9.95828 20.2106 9.93036 20.1719 9.89171C20.1333 9.85306 20.1053 9.80501 20.0909 9.7523C20.0674 9.70594 20.0551 9.6547 20.0551 9.60272C20.0551 9.55074 20.0674 9.4995 20.0909 9.45314C20.3944 8.96531 20.6227 8.43451 20.7679 7.87862C20.7605 7.8529 20.7605 7.82561 20.7679 7.79989C20.9411 6.72922 20.1854 6.22537 18.7526 5.37513L18.1385 5.01299C17.2883 4.41498 16.5479 3.67456 15.9499 2.82441C15.6005 2.32569 15.2164 1.85217 14.8005 1.40734C14.029 1.64352 13.226 1.92693 12.5174 2.22609C12.7228 2.26625 12.9144 2.35821 13.0743 2.49323C13.2341 2.62825 13.3568 2.80187 13.4307 2.9976C13.7298 3.78486 13.1787 4.8083 12.5962 5.70578C12.5441 5.78006 12.4649 5.83094 12.3757 5.84749C13.2932 5.81465 14.2071 5.97737 15.0567 6.32485C15.9064 6.67232 16.6725 7.19661 17.304 7.86287C18.3656 9.02517 18.9307 10.5565 18.8785 12.1298L19.2721 11.7677C19.6149 11.327 20.0726 10.9892 20.5947 10.7915C21.2875 10.6498 21.9961 11.2796 22.6259 11.8307C22.8109 12.0056 23.0111 12.1637 23.2242 12.303C23.263 12.3284 23.2963 12.3613 23.3222 12.3998C23.348 12.4383 23.3658 12.4816 23.3747 12.5271C23.3835 12.5726 23.3831 12.6194 23.3734 12.6648C23.3638 12.7101 23.3452 12.7531 23.3187 12.7911C23.2946 12.8312 23.2626 12.866 23.2247 12.8933C23.1868 12.9207 23.1437 12.9401 23.0981 12.9504C23.0525 12.9607 23.0053 12.9617 22.9593 12.9533C22.9133 12.9448 22.8695 12.9272 22.8306 12.9013C22.5973 12.7393 22.3763 12.5604 22.1693 12.366C21.7127 11.9724 21.0671 11.4213 20.7207 11.4843C20.3612 11.6947 20.0371 11.9603 19.7602 12.2715C19.4806 12.5721 19.1691 12.8413 18.8313 13.0745C18.7435 13.9267 18.6068 14.7731 18.4219 15.6095C18.3989 15.6888 18.3515 15.7587 18.2865 15.8096C18.2215 15.8605 18.1422 15.8896 18.0598 15.8929C18.0123 15.8856 17.9668 15.8684 17.9263 15.8426C17.8858 15.8167 17.8511 15.7827 17.8245 15.7428C17.7978 15.7028 17.7798 15.6577 17.7715 15.6103C17.7632 15.563 17.7649 15.5145 17.7763 15.4678C17.9869 14.6092 18.129 13.7352 18.2015 12.8541C18.3144 12.0624 18.2547 11.2556 18.0264 10.4892C17.7981 9.72277 17.4066 9.01481 16.8789 8.41396C16.0656 7.55146 15.003 6.96482 13.8399 6.73613C12.6767 6.50745 11.4711 6.64817 10.3918 7.13859C9.68507 7.49252 9.02414 7.93138 8.4237 8.44545C9.07805 8.70682 9.63454 9.16586 10.0156 9.75858C10.3966 10.3513 10.5832 11.0481 10.5493 11.7519C10.6421 13.243 10.8634 14.7233 11.2106 16.1763C12.3128 21.0101 17.304 22.2382 21.9173 22.994C22.3739 22.7106 22.8463 22.4272 23.3659 22.1438C23.4496 22.0986 23.5477 22.0881 23.639 22.1146C23.7303 22.1411 23.8075 22.2025 23.854 22.2855C23.8781 22.3274 23.8931 22.3738 23.8981 22.4218C23.9032 22.4699 23.8981 22.5184 23.8833 22.5644C23.8685 22.6103 23.8442 22.6527 23.8121 22.6887C23.7799 22.7248 23.7405 22.7537 23.6965 22.7736C22.9408 23.183 22.248 23.6238 21.5709 24.0332L20.9096 24.4426C21.1297 24.694 21.2973 24.9869 21.4024 25.3041C21.5074 25.6213 21.548 25.9563 21.5216 26.2894C21.4952 26.6225 21.4023 26.947 21.2486 27.2436C21.0948 27.5403 20.8832 27.8031 20.6262 28.0167C20.5587 28.0822 20.4683 28.1187 20.3743 28.1187C20.2803 28.1187 20.1899 28.0822 20.1224 28.0167C20.0881 27.9844 20.0607 27.9453 20.0421 27.902C20.0234 27.8587 20.0137 27.812 20.0137 27.7648C20.0137 27.7176 20.0234 27.671 20.0421 27.6276C20.0607 27.5843 20.0881 27.5453 20.1224 27.5129C20.3215 27.3544 20.485 27.1558 20.6022 26.9299C20.7193 26.704 20.7876 26.4559 20.8024 26.2018C20.8173 25.9478 20.7784 25.6935 20.6884 25.4554C20.5983 25.2174 20.4591 25.0011 20.2798 24.8205C19.1915 25.5005 18.0006 26.0002 16.7529 26.3005H16.6269C16.1073 26.3942 15.5804 26.4416 15.0524 26.4422C14.2988 26.4324 13.5488 26.3374 12.8166 26.1588C12.5177 26.4321 12.1842 26.6651 11.8247 26.8516L11.557 26.9933C12.5444 27.0099 13.5289 27.1047 14.5013 27.2767L16.2648 27.6546C16.2847 27.6067 16.3147 27.5636 16.3528 27.5283C16.3908 27.493 16.436 27.4662 16.4852 27.4499C16.5316 27.4264 16.5828 27.4141 16.6348 27.4141C16.6868 27.4141 16.738 27.4264 16.7844 27.4499L17.1465 27.6703L17.6346 27.9695L18.8155 28.1899C18.8868 28.1013 18.9403 27.9997 18.973 27.8908C18.9865 27.8358 19.0138 27.7853 19.0524 27.7439C19.091 27.7026 19.1395 27.6718 19.1934 27.6546C19.2446 27.6284 19.3012 27.6147 19.3587 27.6147C19.4162 27.6147 19.4729 27.6284 19.5241 27.6546L20.0594 28.0797L20.3586 28.3316C21.5791 28.431 22.8078 28.3299 23.9957 28.0325L24.1532 27.9223C24.5586 27.5793 25.0088 27.2933 25.4915 27.072C25.3656 26.5568 25.1752 26.0595 24.9247 25.592C24.4903 24.8456 24.257 23.9993 24.2476 23.1357C24.2497 23.0902 24.2606 23.0456 24.2799 23.0043C24.2992 22.963 24.3265 22.926 24.3601 22.8953C24.3938 22.8646 24.4331 22.8408 24.476 22.8253C24.5188 22.8098 24.5643 22.803 24.6098 22.8051C24.6566 22.805 24.703 22.8145 24.7461 22.8329C24.7892 22.8512 24.8281 22.8782 24.8604 22.912C24.8928 22.9459 24.918 22.986 24.9345 23.0298C24.9509 23.0737 24.9583 23.1204 24.9562 23.1672C24.9826 23.8957 25.1939 24.6055 25.5702 25.2298C25.822 25.6875 26.0176 26.1738 26.1528 26.6784C26.2252 26.7193 26.2851 26.7792 26.326 26.8516C26.3407 26.9084 26.3407 26.968 26.326 27.0248C27.1922 26.5779 28.0145 26.0507 28.7822 25.4503C28.4919 24.7825 28.0809 24.174 27.5699 23.6553C27.5274 23.6237 27.4923 23.5832 27.4671 23.5366C27.442 23.4899 27.4274 23.4384 27.4243 23.3855C27.4213 23.3326 27.4299 23.2797 27.4495 23.2305C27.4691 23.1813 27.4993 23.137 27.5379 23.1007C27.5765 23.0644 27.6226 23.0371 27.673 23.0206C27.7233 23.004 27.7766 22.9988 27.8292 23.0051C27.8818 23.0115 27.9324 23.0293 27.9774 23.0573C28.0223 23.0853 28.0606 23.1228 28.0895 23.1672C28.6143 23.6999 29.0455 24.3174 29.3648 24.9937C30.278 24.1434 30.2466 23.2774 30.7819 22.1438C30.4092 21.7507 29.9792 21.4163 29.5065 21.1518C29.1327 20.9744 28.7157 20.9083 28.3053 20.9614C27.8949 21.0144 27.5084 21.1844 27.192 21.451C26.5924 21.8577 25.8854 22.0769 25.1609 22.0808C23.9485 22.0808 23.3029 20.8527 22.7361 19.8292C22.4695 19.2406 22.0957 18.7067 21.6339 18.2547C20.9158 17.8372 20.0809 17.6658 19.2564 17.7666H18.7053C18.0039 17.7873 17.3092 17.6245 16.6899 17.2943C15.0052 16.2866 14.3911 14.0192 13.8873 12.1928L13.6511 11.3426C13.6366 11.2981 13.6313 11.2512 13.6354 11.2047C13.6396 11.1582 13.6531 11.1129 13.6751 11.0717C13.6972 11.0306 13.7274 10.9943 13.7638 10.965C13.8003 10.9358 13.8423 10.9143 13.8873 10.9017C13.9317 10.8872 13.9786 10.8819 14.0251 10.886C14.0717 10.8902 14.1169 10.9037 14.1581 10.9257C14.1993 10.9478 14.2356 10.978 14.2648 11.0144C14.294 11.0509 14.3156 11.0929 14.3281 11.1379C14.3281 11.4055 14.4856 11.689 14.5643 12.0039C15.0367 13.7043 15.6193 15.8299 17.0521 16.7274C17.5377 16.9797 18.0795 17.1043 18.6266 17.0896L18.9887 16.8219C20.1381 15.9559 21.319 15.0742 21.2088 13.7988C21.1976 13.7461 21.1984 13.6915 21.211 13.639C21.2236 13.5866 21.2477 13.5376 21.2817 13.4957C21.3156 13.4538 21.3585 13.42 21.4072 13.3968C21.4559 13.3736 21.5091 13.3616 21.5631 13.3616C21.617 13.3616 21.6703 13.3736 21.7189 13.3968C21.7676 13.42 21.8105 13.4538 21.8444 13.4957C21.8784 13.5376 21.9026 13.5866 21.9152 13.639C21.9278 13.6915 21.9285 13.7461 21.9173 13.7988C21.8823 14.4957 21.6683 15.1718 21.296 15.762C20.9237 16.3522 20.4056 16.8365 19.7917 17.1683C20.6061 17.1224 21.4132 17.3436 22.0905 17.7981C22.6373 18.3009 23.0812 18.9052 23.3974 19.5773C23.917 20.522 24.4208 21.4195 25.2238 21.4667C25.7896 21.4327 26.3348 21.2419 26.7984 20.9157C27.2204 20.5936 27.7235 20.3951 28.2518 20.3422C28.78 20.2894 29.3125 20.3844 29.7899 20.6165C30.2687 20.8797 30.7086 21.2082 31.0968 21.5927C31.1913 21.451 31.3015 21.2778 31.4274 21.1203C30.278 20.459 29.8529 18.3019 29.4278 16.3968C29.3507 15.6896 29.1976 14.9928 28.9712 14.3184C28.7035 11.8622 29.475 11.1694 30.9866 9.70506C32.1517 8.6029 31.8526 7.31179 30.9866 5.59556C30.9648 5.55319 30.9516 5.50693 30.9477 5.45945C30.9439 5.41196 30.9494 5.36418 30.964 5.31884C30.9786 5.2735 31.0021 5.23148 31.033 5.19521C31.0638 5.15894 31.1016 5.12912 31.144 5.10746C31.228 5.06833 31.3237 5.06285 31.4116 5.09213C31.4994 5.12142 31.5727 5.18325 31.6164 5.26491C32.4666 6.9654 33.0177 8.72886 31.4589 10.2247C29.9002 11.7204 29.475 12.1141 29.664 14.0822C30.2151 14.4759 30.7347 14.7908 31.2385 15.1214L31.9313 15.5465C32.3249 15.7827 32.7815 16.0346 33.2854 16.3023C34.5394 16.8183 35.7033 17.5305 36.7336 18.4122C36.8981 18.3182 37.0559 18.213 37.2059 18.0973C38.4242 16.6553 39.2246 14.9074 39.5205 13.043C39.265 12.8088 38.9285 12.6828 38.582 12.6916C38.2354 12.7004 37.9058 12.8433 37.6625 13.0903ZM16.375 4.24148C15.7925 4.147 15.3673 4.24148 15.1784 4.39893C15.1079 4.51307 15.0629 4.64114 15.0466 4.77433C15.0303 4.90751 15.043 5.04265 15.0839 5.17044C15.1029 5.26216 15.0857 5.35769 15.0358 5.43696C14.9859 5.51623 14.9072 5.57308 14.8162 5.59556H14.8005C14.7186 5.59693 14.6388 5.5692 14.5754 5.51731C14.512 5.46542 14.469 5.39273 14.4541 5.31215C14.3848 5.07048 14.3743 4.81572 14.4236 4.56918C14.4729 4.32264 14.5806 4.0915 14.7375 3.89508C14.9874 3.69244 15.2827 3.55359 15.5982 3.4905C15.9136 3.42741 16.2397 3.44198 16.5482 3.53294C16.6417 3.54844 16.7255 3.6 16.7814 3.67654C16.8373 3.75308 16.861 3.8485 16.8474 3.94232C16.8408 3.99535 16.8225 4.04626 16.7938 4.0914C16.7652 4.13653 16.727 4.17477 16.6818 4.20336C16.6366 4.23196 16.5857 4.25021 16.5327 4.2568C16.4796 4.26339 16.4258 4.25815 16.375 4.24148ZM28.4516 10.5396C28.4228 10.5992 28.3783 10.6498 28.3228 10.6859C28.2672 10.722 28.2029 10.7422 28.1367 10.7442H27.9792C27.9368 10.7226 27.8991 10.6928 27.8682 10.6565C27.8373 10.6202 27.8139 10.5782 27.7992 10.5329C27.7846 10.4875 27.7791 10.4397 27.7829 10.3923C27.7868 10.3448 27.8 10.2985 27.8218 10.2561C28.2791 9.42412 28.5266 8.49318 28.5431 7.54391C28.5596 6.59465 28.3444 5.65568 27.9163 4.8083C27.8983 4.76597 27.8889 4.72047 27.8887 4.67447C27.8885 4.62847 27.8974 4.58289 27.915 4.54038C27.9326 4.49787 27.9585 4.4593 27.9911 4.4269C28.0238 4.3945 28.0626 4.36894 28.1052 4.35169C28.1483 4.33116 28.1953 4.31977 28.243 4.31825C28.2908 4.31673 28.3383 4.32511 28.3827 4.34285C28.4271 4.3606 28.4673 4.38733 28.5008 4.42137C28.5343 4.4554 28.5605 4.49601 28.5776 4.54063C29.0528 5.48629 29.2924 6.53282 29.276 7.59105C29.2595 8.64929 28.9875 9.68786 28.4831 10.6183L28.4516 10.5396Z" fill="white"/>
<path d="M12.6119 23.4506C11.8742 23.7431 11.0907 23.9031 10.2973 23.923C9.61605 23.9145 8.94464 23.7588 8.3292 23.4664C8.22766 23.633 8.13821 23.8066 8.06153 23.986C7.88615 24.3605 7.66963 24.7143 7.41598 25.0409L7.88833 25.5762C8.38217 26.0002 8.76123 26.5417 8.9905 27.1508C9.41562 27.1508 9.88798 27.0406 10.3603 27.0091C10.6697 26.6657 11.0444 26.3873 11.4625 26.1903L11.9506 25.9069C11.1004 25.6865 10.0927 25.4345 9.06923 25.2456C8.98072 25.2215 8.90467 25.1646 8.85644 25.0866C8.80821 25.0086 8.79139 24.9151 8.80938 24.8252C8.82737 24.7352 8.87883 24.6555 8.95336 24.602C9.0279 24.5485 9.11995 24.5253 9.21093 24.5371C10.5335 24.8047 11.8089 25.1196 12.7693 25.3873C13.3522 25.5404 13.9477 25.6406 14.5486 25.6865C13.839 25.3465 13.2509 24.7969 12.8638 24.1119C12.7533 23.9026 12.6687 23.6805 12.6119 23.4506Z" fill="white"/>
<path d="M16.5325 25.529C18.0902 25.1023 19.5648 24.4156 20.8939 23.4978C18.293 23.1767 15.7939 22.29 13.5724 20.8999C13.3483 21.3415 13.2315 21.8297 13.2315 22.3248C13.2315 22.82 13.3483 23.3082 13.5724 23.7498C13.8926 24.2568 14.3272 24.6818 14.8412 24.9907C15.3552 25.2997 15.9344 25.484 16.5325 25.529Z" fill="white"/>
</svg>
