<svg width="38" height="38" viewBox="0 0 38 38" fill="none" xmlns="http://www.w3.org/2000/svg">
<path fill-rule="evenodd" clip-rule="evenodd" d="M24.5417 8.07495C27.2962 8.07495 29.5292 10.3079 29.5292 13.0625C29.5292 15.817 27.2962 18.05 24.5417 18.05C21.7872 18.05 19.5542 15.817 19.5542 13.0625C19.5542 10.3079 21.7872 8.07495 24.5417 8.07495ZM24.5417 10.1333C22.9239 10.1333 21.6125 11.4447 21.6125 13.0625C21.6125 14.6802 22.9239 15.9916 24.5417 15.9916C26.1594 15.9916 27.4708 14.6802 27.4708 13.0625C27.4708 11.4447 26.1594 10.1333 24.5417 10.1333ZM19.2298 11.4781C19.0803 11.9801 19 12.5119 19 13.0625C19 13.6129 19.0803 14.1447 19.2298 14.6466L4.75001 14.6458C3.87555 14.6458 3.16667 13.9369 3.16667 13.0625C3.16667 12.188 3.87555 11.4791 4.75001 11.4791L19.2298 11.4781ZM29.8535 11.4781L33.25 11.4791C34.1245 11.4791 34.8333 12.188 34.8333 13.0625C34.8333 13.9369 34.1245 14.6458 33.25 14.6458L29.8536 14.6466C30.0031 14.1447 30.0833 13.6129 30.0833 13.0625C30.0833 12.5119 30.003 11.9801 29.8535 11.4781ZM12.6667 19.95C15.4212 19.95 17.6542 22.1829 17.6542 24.9375C17.6542 27.692 15.4212 29.9249 12.6667 29.9249C9.91215 29.9249 7.67917 27.692 7.67917 24.9375C7.67917 22.1829 9.91215 19.95 12.6667 19.95ZM12.6667 22.0083C11.0489 22.0083 9.7375 23.3197 9.7375 24.9375C9.7375 26.5552 11.0489 27.8666 12.6667 27.8666C14.2844 27.8666 15.5958 26.5552 15.5958 24.9375C15.5958 23.3197 14.2844 22.0083 12.6667 22.0083ZM7.3548 23.3531C7.20529 23.8551 7.125 24.3869 7.125 24.9375C7.125 25.4879 7.20527 26.0197 7.35474 26.5216L4.75001 26.5208C3.87555 26.5208 3.16667 25.8119 3.16667 24.9375C3.16667 24.063 3.87555 23.3541 4.75001 23.3541L7.3548 23.3531ZM17.9785 23.3531L33.25 23.3541C34.1245 23.3541 34.8333 24.063 34.8333 24.9375C34.8333 25.8119 34.1245 26.5208 33.25 26.5208L17.9785 26.5216C18.1281 26.0197 18.2083 25.4879 18.2083 24.9375C18.2083 24.3869 18.128 23.8551 17.9785 23.3531Z" fill="#333333"/>
</svg>
