<svg width="30" height="46" viewBox="0 0 30 46" fill="none" xmlns="http://www.w3.org/2000/svg">
<path d="M21.2268 21.39C21.2268 21.39 21.2268 21.39 21.2268 21.4952C21.2268 21.6004 21.2268 21.9337 21.2268 22.1793C21.2533 22.6759 21.2533 23.1736 21.2268 23.6702C21.2268 24.214 21.2268 24.7577 21.0865 25.319C20.9462 26.4591 20.7533 27.6519 20.5603 28.8271V29.248C20.5603 29.248 20.5603 29.248 20.5603 29.4059C20.5603 29.5638 20.6656 30.0549 20.7708 30.5109C20.8774 31.016 21.0483 31.5053 21.2795 31.9668C21.5542 32.4914 21.9439 32.9471 22.4196 33.2999L23.1914 33.8261L23.8579 34.2821C23.966 34.1833 24.0835 34.0952 24.2087 34.019C24.9951 33.5835 25.89 33.3826 26.7871 33.4402L27.2081 33.5454L27.4361 33.6682H27.2958L26.8748 33.563C26.4368 33.5512 25.9993 33.6044 25.5769 33.7208C25.1499 33.8279 24.7418 33.9995 24.3666 34.2295L24.0333 34.4751L24.6998 34.9662C24.8928 35.1591 25.0857 35.317 25.2611 35.4749C25.4365 35.6327 25.8926 36.0712 26.1031 36.2642L26.4012 36.5624L26.0855 36.2817C25.875 36.1063 25.5769 35.8257 25.2085 35.545L24.6121 35.089L23.9105 34.5978C23.6825 34.44 23.4018 34.2997 23.1387 34.1243C22.8756 33.9489 22.595 33.8261 22.3319 33.6507C21.7862 33.2983 21.3298 32.8239 20.9988 32.265C20.7502 31.8139 20.5503 31.3376 20.4024 30.8442C20.4024 31.388 20.2797 31.9142 20.2446 32.4404C20.2095 32.9666 20.2446 33.5279 20.2446 34.0366C20.2522 34.5248 20.2992 35.0117 20.3849 35.4924L20.4901 36.1239C20.5324 36.3137 20.5851 36.5011 20.648 36.6852C20.7286 36.9915 20.8342 37.2907 20.9637 37.5797L21.3145 38.3164C21.3145 38.3164 21.1567 38.0533 20.9111 37.5973C20.7621 37.3166 20.6388 37.0231 20.5428 36.7202C20.5428 36.5448 20.4024 36.3519 20.3498 36.1589C20.2972 35.966 20.2621 35.738 20.2095 35.5275C20.0953 35.049 20.0191 34.5622 19.9815 34.0716C19.9815 33.5454 19.9815 32.9841 19.9815 32.4228C19.9815 31.8616 19.9815 31.2652 19.9815 30.6688C19.9815 30.0724 19.9815 29.8444 20.0867 29.4234V29.1779C20.1301 29.0756 20.1653 28.97 20.192 28.8621C20.2972 27.6519 20.42 26.4591 20.4901 25.3541C20.4901 25.1261 20.4901 24.898 20.4901 24.6875C19.569 25.5002 18.7973 26.4678 18.2099 27.5466C18.0208 27.9314 17.8794 28.3378 17.7889 28.7569C17.7012 29.213 17.6311 29.6865 17.5434 30.1777C17.4628 30.6792 17.3029 31.1647 17.0698 31.616L16.8944 31.8791L16.9119 31.9142C16.9844 32.0235 17.0433 32.1413 17.0873 32.265C17.1591 32.4176 17.2178 32.576 17.2627 32.7386C17.3757 33.1394 17.4462 33.5509 17.4732 33.9664C17.5081 34.4276 17.5081 34.8908 17.4732 35.3521C17.3864 36.1918 17.3864 37.0382 17.4732 37.8779C17.4983 38.1587 17.5572 38.4355 17.6486 38.7023V39.0005C17.6486 39.0005 17.6486 38.8952 17.5258 38.7023C17.4265 38.4405 17.3502 38.1705 17.2978 37.8954C17.1547 37.0789 17.0843 36.2512 17.0873 35.4222V35.2995L16.7365 35.8081C16.5611 36.0537 16.3682 36.3343 16.1752 36.6501C15.9823 36.9658 15.8069 37.2991 15.6139 37.6499C15.421 38.0007 15.2631 38.3515 15.1403 38.7023C15.0115 39.0097 14.906 39.3263 14.8246 39.6495C14.7644 39.8745 14.7176 40.103 14.6843 40.3335C14.7013 40.0961 14.7424 39.861 14.8071 39.6319C14.8835 39.3114 14.9772 38.9952 15.0877 38.6848C15.2105 38.3339 15.3859 37.9831 15.5438 37.6148C15.7016 37.2464 15.8946 36.9132 16.0875 36.5974C16.2805 36.2817 16.4559 35.9835 16.6313 35.738C16.7709 35.5132 16.9232 35.2965 17.0873 35.089C17.0873 34.7382 17.0873 34.4049 17.0873 34.0892C17.0314 33.7123 16.9374 33.342 16.8067 32.9841C16.753 32.8504 16.6885 32.7214 16.6137 32.5982C16.6137 32.493 16.5085 32.4053 16.4734 32.3176C16.4383 32.2299 16.2454 32.5982 16.1226 32.721C15.4736 33.3876 14.772 33.8612 14.3686 34.4751C14.1561 34.7144 13.9842 34.987 13.8599 35.2819C13.7519 35.5103 13.6752 35.7522 13.6319 36.0011C13.6212 36.1588 13.6212 36.317 13.6319 36.4747C13.6319 36.3694 13.6319 36.194 13.6319 35.9835C13.6561 35.7311 13.7152 35.4832 13.8073 35.2468C13.9211 34.9273 14.0806 34.626 14.2809 34.3523C14.7194 33.7559 15.3859 33.2122 16.0349 32.5982C16.32 32.2615 16.5616 31.8902 16.754 31.4932C16.9226 31.0724 17.029 30.6292 17.0698 30.1777C17.0698 29.7041 17.0698 29.2305 17.2101 28.7394C17.3504 28.2482 17.2978 28.2658 17.3504 28.0202L16.9119 27.7045C16.8537 27.6459 16.7811 27.6036 16.7014 27.5817C16.6061 27.5244 16.4969 27.4941 16.3857 27.494C16.0684 27.4978 15.7631 27.6162 15.5262 27.8273C15.2105 28.0553 14.9123 28.3535 14.5615 28.6166C14.4813 28.6906 14.3931 28.7553 14.2984 28.8095H14.1932C14.1964 28.8445 14.1964 28.8798 14.1932 28.9148C14.2786 29.0972 14.332 29.293 14.351 29.4936C14.4117 29.7769 14.4117 30.0698 14.351 30.3531C14.2863 30.673 14.1863 30.9848 14.0528 31.2827C13.8057 31.8384 13.5123 32.3723 13.1758 32.8789L12.7198 33.5805L13.1583 32.8789C13.4684 32.3598 13.7438 31.8207 13.9827 31.2652C14.1105 30.9667 14.2046 30.6549 14.2633 30.3355C14.3066 30.0624 14.3066 29.7842 14.2633 29.5111C14.2468 29.4028 14.2174 29.2968 14.1756 29.1954C14.1756 29.1954 14.1756 29.0376 14.1756 28.9674V28.8797L13.5968 29.1077C13.2597 29.2245 12.9362 29.3774 12.6321 29.5638C12.4163 29.698 12.2453 29.8934 12.1409 30.1251C12.1252 30.2179 12.1252 30.3128 12.1409 30.4057C12.1215 30.3073 12.1215 30.206 12.1409 30.1075C12.2326 29.8594 12.3978 29.6452 12.6145 29.4936C12.9086 29.2769 13.2263 29.0945 13.5617 28.9499L14.1055 28.6692L14.351 28.5113L14.5966 28.3009C14.8948 28.0202 15.1754 27.7045 15.4911 27.4238C15.787 27.1279 16.1789 26.9475 16.5962 26.9152C16.7758 26.9071 16.9551 26.937 17.1224 27.0029C17.2499 27.0456 17.3688 27.111 17.4732 27.1958V27.038C17.7799 26.2777 18.1806 25.5588 18.6659 24.898C19.038 24.4207 19.4424 23.9694 19.8762 23.5474L20.42 23.144C20.4385 22.8637 20.4385 22.5824 20.42 22.3021C20.42 22.0916 20.42 21.8811 20.42 21.6881L20.3147 21.1444C20.2916 20.864 20.2014 20.5933 20.0516 20.3551C19.8286 19.9656 19.5159 19.6349 19.1395 19.3904C18.6794 19.1969 18.1824 19.1071 17.6837 19.1272C17.6849 18.9637 17.7208 18.8023 17.7889 18.6537C17.9643 18.3029 18.8414 17.1101 22.7879 16.4962C24.2262 16.2682 23.4194 11.0762 21.9811 11.2341L20.6655 11.4797C20.3968 11.6917 20.1021 11.8685 19.7885 12.0059C16.0524 13.5845 13.7546 15.5139 13.2986 17.4083C13.1104 18.3948 13.2651 19.416 13.7371 20.3025L12.9478 20.7585C12.3007 19.7699 12.056 18.5714 12.2637 17.4083C12.7198 15.5139 15.0176 13.5845 18.7536 12.0059C20.648 11.199 18.8764 4.98972 17.4907 4.84939C17.1534 3.59697 17.0935 2.286 17.3153 1.00805C17.4557 0.183655 14.4563 -0.342555 14.3159 0.481842C14.0024 2.23307 14.0924 4.03273 14.579 5.74395L14.0879 5.98952C13.5611 4.22058 13.4471 2.35438 13.7546 0.534465C13.747 0.458647 13.747 0.382255 13.7546 0.306438C13.5266 -0.360096 10.6851 0.148577 10.7903 0.990515C10.9482 2.2008 11.5446 5.16512 11.948 7.1121C11.0179 5.20983 9.83813 3.44018 8.43992 1.84999C7.86108 1.25362 5.66854 3.376 6.26491 3.97237C7.48849 5.46614 8.52518 7.10365 9.35201 8.8486C7.15172 10.5547 5.57881 12.9418 4.87922 15.6367C4.27528 18.2411 4.59135 20.9742 5.77378 23.372L5.26511 23.4948C4.21064 21.4288 3.81352 19.0896 4.12706 16.7914C4.44061 14.4931 5.4498 12.3458 7.01915 10.6377C7.35241 9.56775 3.17781 7.12964 2.35341 8.33992C1.52901 9.55021 0.599373 11.7252 1.12558 18.3906C1.38869 21.7408 1.89736 24.6525 1.93244 24.7752C1.9641 24.9676 2.01705 25.1559 2.0903 25.3365C1.66465 25.7916 1.33637 26.3288 1.12558 26.9152C1.13551 26.9909 1.13551 27.0675 1.12558 27.1432H1.30099C1.71745 27.2486 2.1184 27.4078 2.49373 27.6168C2.49373 27.6168 2.49373 27.494 2.58143 27.4414C2.62698 27.3607 2.69369 27.294 2.77438 27.2484C2.94611 27.1388 3.15177 27.0952 3.35321 27.1257L3.96712 27.2134H4.26531H4.5635C4.74398 27.1898 4.92676 27.1898 5.10725 27.2134C5.23782 27.2106 5.3662 27.2473 5.47559 27.3186C5.51582 27.3481 5.55131 27.3836 5.58084 27.4238C5.54868 27.3839 5.50622 27.3536 5.45805 27.3361C5.35301 27.2713 5.23044 27.2407 5.10725 27.2484C4.92754 27.268 4.75086 27.3093 4.58104 27.3712H4.28285C4.28285 27.3712 4.28285 27.4589 4.28285 27.494C4.27659 27.5406 4.27659 27.5878 4.28285 27.6343C4.34261 27.7601 4.42597 27.8733 4.52841 27.9676L4.9143 28.2482C5.17043 28.4021 5.44059 28.5313 5.72116 28.6341L6.10705 28.792L5.72116 28.6517C5.41147 28.5925 5.10659 28.5104 4.80906 28.4061C4.67061 28.3269 4.54121 28.2328 4.42317 28.1255C4.31467 28.0279 4.22022 27.9157 4.14253 27.7922C4.09023 27.706 4.05453 27.6108 4.03728 27.5115H3.8268H3.21289C3.05653 27.4965 2.90019 27.5403 2.77438 27.6343C2.72975 27.666 2.6936 27.7082 2.66914 27.7571C2.66515 27.7979 2.66515 27.8391 2.66914 27.8799C2.67734 27.9145 2.67734 27.9505 2.66914 27.9851C2.76816 28.047 2.85693 28.1239 2.93224 28.2132L3.42337 28.7394C3.57157 28.9086 3.7428 29.0562 3.93204 29.1779C4.12745 29.2767 4.33339 29.3532 4.54595 29.4059C4.96692 29.4059 5.40543 29.5111 5.75624 29.6164L6.19475 29.8269L6.49294 30.0724L6.6508 30.2654L6.49294 30.09C6.40276 30.0076 6.30258 29.9369 6.19475 29.8795C6.04957 29.8046 5.89664 29.7458 5.7387 29.7041C5.40543 29.7041 4.98446 29.7041 4.52841 29.5813H4.28285C4.27434 29.6336 4.27434 29.6869 4.28285 29.7392C4.27864 29.8093 4.27864 29.8796 4.28285 29.9497C4.3258 30.1292 4.39684 30.3009 4.49333 30.4583C4.49333 30.5986 4.66874 30.739 4.75644 30.8793L5.12479 31.0021L5.59838 31.1775L6.10705 31.423C6.27853 31.5023 6.44285 31.5962 6.59818 31.7037L7.00161 32.0019L6.59818 31.7212L6.08951 31.4581C5.9268 31.3677 5.75662 31.2914 5.58084 31.2301L5.10725 31.0547H4.8266C5.08561 31.3844 5.31455 31.7366 5.51067 32.1071C5.56961 32.231 5.6166 32.3602 5.651 32.493V32.6509V32.5105C5.60473 32.3767 5.54601 32.2475 5.47559 32.1247C5.25408 31.7707 4.99535 31.4414 4.70382 31.1424L4.28285 30.5986C4.17748 30.4265 4.08935 30.2444 4.01974 30.0549C4.01974 29.9672 4.01974 29.8795 3.93204 29.8093C3.84434 29.7392 3.93204 29.669 3.93204 29.6164V29.5287H3.77418C3.54556 29.4194 3.3378 29.271 3.16027 29.0902L2.61652 28.4061C2.45092 28.2617 2.26832 28.138 2.07276 28.0378C1.72526 27.8786 1.36026 27.7609 0.985261 27.6869H0.774777C0.735278 27.8011 0.70593 27.9185 0.687075 28.0378L1.70442 29.1779H1.84474V29.3007C1.98836 29.4443 2.12308 29.5966 2.24817 29.7567C2.44111 29.9672 2.61651 30.1952 2.79192 30.4232C2.96732 30.6513 3.12519 30.8793 3.26551 31.0898C3.40583 31.3003 3.51107 31.5283 3.59877 31.7388C3.64714 31.8349 3.68819 31.9346 3.72156 32.037C3.76669 32.1248 3.79636 32.2197 3.80926 32.3176C3.87233 32.4628 3.9137 32.6164 3.93204 32.7737L3.79172 32.3351L3.68648 32.0545L3.56369 31.9142C3.45265 31.7027 3.32967 31.4977 3.19535 31.3003L2.70422 30.6863C2.54303 30.4809 2.36717 30.2875 2.17801 30.1075C2.26908 30.3442 2.32807 30.5919 2.35341 30.8442C2.38791 31.1581 2.35196 31.4757 2.24817 31.7738C2.24817 31.9317 2.12538 32.072 2.07276 32.2124C2.02014 32.3527 1.94998 32.493 1.89736 32.6158C1.84474 32.7386 1.89736 32.8964 1.77458 33.0192C1.73145 33.1396 1.69629 33.2626 1.66934 33.3876C1.66934 33.598 1.56409 33.791 1.52901 33.9313C1.49393 34.0716 1.52901 34.1418 1.52901 34.1418C1.52901 34.1418 1.52901 34.1418 1.52901 33.9313C1.51854 33.7444 1.51854 33.557 1.52901 33.37C1.52901 33.2648 1.52901 33.1245 1.61671 33.0017L1.72196 32.6158H1.47639C1.26001 32.6412 1.04779 32.6942 0.844938 32.7737C0.649672 32.8527 0.466598 32.959 0.301186 33.0894C0.242713 33.1374 0.19492 33.1972 0.160863 33.2648C0.193817 33.2011 0.235109 33.1421 0.283647 33.0894C0.44914 32.941 0.63903 32.8223 0.844938 32.7386C1.04253 32.641 1.25676 32.5814 1.47639 32.5632H1.7395C1.7395 32.4404 1.7395 32.3176 1.86228 32.1773L2.02014 31.7563C2.0894 31.4681 2.0894 31.1675 2.02014 30.8793C1.97861 30.63 1.90183 30.3878 1.79212 30.1601C1.72053 29.9858 1.63853 29.8159 1.54655 29.6515C1.4913 29.614 1.44368 29.5664 1.40623 29.5111L0.564293 28.4061C-3.78572 45.9465 18.1924 46.1394 26.1206 45.6132C26.9052 45.5429 27.6434 45.2105 28.2161 44.6696C28.7888 44.1286 29.1628 43.4107 29.2779 42.6313C29.3037 42.363 29.3037 42.0928 29.2779 41.8245V41.0352C29.2779 40.509 29.2779 39.9827 29.1902 39.439C29.1902 38.4216 29.0498 37.3868 28.9621 36.3694C28.8744 35.3521 28.7517 34.44 28.6113 33.4753C28.471 32.5105 28.3131 31.7212 28.1202 30.8618C27.9374 30.0888 27.709 29.3274 27.4361 28.5815C27.1823 27.9098 26.8651 27.2637 26.4889 26.6521C26.1918 26.0794 25.8456 25.5336 25.4541 25.0208C25.0888 24.5541 24.6901 24.1144 24.2613 23.7053C23.8435 23.3075 23.4044 22.9327 22.9458 22.5827L21.5601 21.6004L21.2268 21.39Z" fill="white"/>
</svg>
