<svg width="9" height="10" viewBox="0 0 9 10" fill="none" xmlns="http://www.w3.org/2000/svg">
<path fill-rule="evenodd" clip-rule="evenodd" d="M4.375 1.35135C6.79125 1.35135 8.75 3.28742 8.75 5.67568C8.75 8.06394 6.79125 10 4.375 10C1.95875 10 0 8.06394 0 5.67568C0 3.28742 1.95875 1.35135 4.375 1.35135ZM4.375 2.43243C2.56282 2.43243 1.09375 3.88448 1.09375 5.67568C1.09375 7.46687 2.56282 8.91892 4.375 8.91892C6.18718 8.91892 7.65625 7.46687 7.65625 5.67568C7.65625 3.88448 6.18718 2.43243 4.375 2.43243ZM3.73628 3.75421L4.70438 5.18954L5.84944 5.4159C6.14561 5.47445 6.33768 5.75922 6.27844 6.05195C6.21921 6.34469 5.9311 6.53453 5.63494 6.47599L4.26775 6.20572C4.12553 6.1776 4.00043 6.0948 3.91997 5.97551L2.82622 4.35389C2.65869 4.1055 2.72659 3.76989 2.9779 3.6043C3.2292 3.4387 3.56874 3.50582 3.73628 3.75421ZM4.92188 0C5.22391 0 5.46875 0.242008 5.46875 0.540541C5.46875 0.839073 5.22391 1.08108 4.92188 1.08108H3.82812C3.52609 1.08108 3.28125 0.839073 3.28125 0.540541C3.28125 0.242008 3.52609 0 3.82812 0H4.92188Z" fill="#333333"/>
</svg>
