<svg width="30" height="30" viewBox="0 0 30 30" fill="none" xmlns="http://www.w3.org/2000/svg">
<path fill-rule="evenodd" clip-rule="evenodd" d="M15 5.70513C19.9673 5.70513 23.9941 9.72309 23.9941 14.6795L23.9937 21.0894L24.6526 21.0897C25.3622 21.0897 25.9375 21.6637 25.9375 22.3718C25.9375 23.0799 25.3622 23.6538 24.6526 23.6538H18.8546C18.8546 25.778 17.1289 27.5 15 27.5C12.8711 27.5 11.1454 25.778 11.1454 23.6538H5.34738C4.63776 23.6538 4.0625 23.0799 4.0625 22.3718C4.0625 21.6637 4.63776 21.0897 5.34738 21.0897L6.00563 21.0894L6.00587 14.6795C6.00587 9.72309 10.0327 5.70513 15 5.70513ZM16.2849 23.6538H13.7151C13.7151 24.3619 14.2904 24.9359 15 24.9359C15.7096 24.9359 16.2849 24.3619 16.2849 23.6538ZM15 8.26923C11.4519 8.26923 8.57562 11.1392 8.57562 14.6795V21.0897H21.4244V14.6795C21.4244 11.1392 18.5481 8.26923 15 8.26923ZM16.2849 2.5C16.9945 2.5 17.5697 3.07399 17.5697 3.78205C17.5697 4.49011 16.9945 5.0641 16.2849 5.0641H13.7151C13.0055 5.0641 12.4302 4.49011 12.4302 3.78205C12.4302 3.07399 13.0055 2.5 13.7151 2.5H16.2849Z" fill="#333333"/>
</svg>
