<svg width="28" height="28" viewBox="0 0 28 28" fill="none" xmlns="http://www.w3.org/2000/svg">
<path fill-rule="evenodd" clip-rule="evenodd" d="M20.8826 18.5032L23.8308 21.4505C24.5286 22.1481 24.5286 23.2792 23.8308 23.9768C23.133 24.6744 22.0016 24.6744 21.3038 23.9768L18.3556 21.0295C18.123 20.797 18.123 20.4199 18.3556 20.1874L20.0403 18.5032C20.2729 18.2707 20.65 18.2707 20.8826 18.5032ZM12.5801 3.5C17.5144 3.5 21.5144 7.49884 21.5144 12.4317C21.5144 17.3645 17.5144 21.3633 12.5801 21.3633C7.64584 21.3633 3.64583 17.3645 3.64583 12.4317C3.64583 7.49884 7.64584 3.5 12.5801 3.5ZM12.5801 5.88178C8.96165 5.88178 6.0283 8.81426 6.0283 12.4317C6.0283 16.0491 8.96165 18.9816 12.5801 18.9816C16.1986 18.9816 19.1319 16.0491 19.1319 12.4317C19.1319 8.81426 16.1986 5.88178 12.5801 5.88178ZM14.7479 6.88422C16.4501 7.54941 17.762 8.96891 18.2869 10.7224C18.4756 11.3525 18.1175 12.0162 17.4872 12.2048C16.8856 12.3847 16.2534 12.0668 16.0331 11.4895L16.0045 11.4053C15.6901 10.3552 14.901 9.50132 13.8805 9.10255C13.2677 8.8631 12.9652 8.1724 13.2047 7.55982C13.4442 6.94725 14.1351 6.64477 14.7479 6.88422Z" fill="#1E1F2E"/>
</svg>
