<svg width="16" height="15" viewBox="0 0 16 15" fill="none" xmlns="http://www.w3.org/2000/svg">
<path fill-rule="evenodd" clip-rule="evenodd" d="M5.14708 4.35404L0.701913 5.108L0.638381 5.12111C0.0158928 5.27304 -0.218441 6.03965 0.239919 6.50202L3.38402 9.67385L2.74201 14.0518L2.73524 14.1132C2.68872 14.7416 3.36074 15.1982 3.95153 14.9134L8 12.9614L12.0485 14.9134L12.1059 14.9387C12.7011 15.1762 13.3517 14.6907 13.258 14.0518L12.6156 9.67385L15.7601 6.50202L15.8036 6.4548C16.2161 5.97317 15.9461 5.21793 15.2981 5.108L10.8525 4.35404L8.74752 0.441958C8.4304 -0.147319 7.5696 -0.147319 7.25248 0.441958L5.14708 4.35404Z" fill="#FFD33C"/>
</svg>
