<svg width="33" height="41" viewBox="0 0 33 41" fill="none" xmlns="http://www.w3.org/2000/svg">
<path d="M29.7456 29.9298C29.7456 29.6023 29.5818 29.2747 29.4999 28.9472C29.418 28.6196 29.3975 28.7834 29.3566 28.681L29.0905 28.9267C28.8448 29.1928 28.5787 29.4385 28.333 29.6637L27.985 30.0117L27.637 30.2778L26.1016 31.4652L27.3708 30.0322L27.6574 29.6841C27.6574 29.5613 27.8417 29.4385 27.9236 29.2952C28.0055 29.1519 28.3125 28.7424 28.5172 28.4558C28.7386 28.1645 28.9371 27.8566 29.1109 27.5346L29.6637 26.552C29.6637 26.552 29.6637 26.3677 29.807 26.2653C31.6614 21.1914 32.651 15.8422 32.7344 10.4406C32.7344 4.66757 29.6432 0 23.8701 0C21.4968 0.0221299 19.1516 0.516221 16.9711 1.4535L17.3806 1.82199L18.2404 2.72275C18.5065 3.02983 18.7727 3.29596 19.0388 3.5621L19.6734 4.38097L20.9631 6.08013L19.4073 4.6471L18.6498 3.97153L17.7286 3.29596L16.7664 2.57945C16.4308 2.34194 16.0822 2.12324 15.7224 1.92435L14.6578 1.3102L13.5933 0.818872L12.9587 0.532266C11.6171 0.207421 10.2443 0.0289575 8.8643 0C3.09125 0 0 4.66757 0 10.4406C0.068975 15.631 1.01015 20.7729 2.78417 25.6512C2.92066 25.9617 3.07797 26.2626 3.25502 26.552C3.43927 26.8795 3.62351 27.2071 3.78729 27.5346C3.96859 27.8521 4.16677 28.1596 4.38097 28.4558L4.97465 29.2952C4.97465 29.4385 5.1589 29.5613 5.24079 29.6841L5.54786 30.0322L6.79664 31.4652L5.26126 30.2778L4.91324 30.0117L4.68805 29.6637L3.93059 28.9267C3.80776 28.8039 3.66446 28.681 3.54162 28.5377C3.41879 28.3944 3.4188 28.8039 3.35738 28.9472C3.29596 29.0905 3.17313 29.6023 3.11172 29.9298C2.95661 30.5349 2.84712 31.1508 2.78417 31.7723C2.66327 32.8334 2.66327 33.9048 2.78417 34.9659C2.85282 35.7932 2.98284 36.6144 3.17313 37.4225C3.23003 37.6916 3.3194 37.9528 3.43927 38.2004C3.43927 38.4256 3.60304 38.6099 3.66446 38.7532C3.72587 38.8965 3.86918 39.224 3.86918 39.224C4.05936 39.6087 4.35834 39.929 4.72899 40.1452C5.23666 40.3907 5.81745 40.4386 6.35849 40.2797C6.89953 40.1208 7.36216 39.7664 7.65646 39.2854L7.88165 38.8555C8.02496 38.5894 8.25014 38.0776 8.51628 37.6272L9.43751 36.1532C9.62176 35.8666 9.78553 35.5596 10.0107 35.2729C10.2106 34.9597 10.4294 34.6589 10.6658 34.3722C10.8882 34.0592 11.1274 33.7585 11.3823 33.4714C11.5256 33.3281 11.628 33.1644 11.7508 33.0211L12.1603 32.6116C12.4264 32.325 12.713 32.0998 12.9791 31.8337C13.2453 31.5676 13.5114 31.3628 13.8185 31.1991C14.2742 30.8704 14.7784 30.6149 15.3129 30.4416H15.4767H15.62C15.62 30.4416 15.8042 30.4416 15.8861 30.4416C15.968 30.4416 16.0499 30.4416 16.1318 30.4416H16.3365H16.9097C17.1144 30.4416 17.053 30.4416 17.0326 30.4416H17.1759H17.3396C17.8741 30.6149 18.3783 30.8704 18.8341 31.1991C19.1412 31.3628 19.3663 31.629 19.6734 31.8337C19.9805 32.0384 20.2262 32.325 20.4923 32.6116L20.9017 33.0211C21.0246 33.1644 21.1269 33.3281 21.2702 33.4714C21.5251 33.7585 21.7643 34.0592 21.9867 34.3722C22.2324 34.6588 22.4166 34.9659 22.6418 35.2729C22.867 35.58 23.0308 35.8666 23.215 36.1532C23.3993 36.4398 23.8701 37.2587 24.1568 37.7091C24.4434 38.1595 24.6071 38.5689 24.7504 38.8146L25.1599 39.2854L25.3236 39.5311C25.5402 39.8739 25.8537 40.1446 26.2244 40.309C26.7364 40.5359 27.3163 40.5561 27.8428 40.3653C28.3693 40.1745 28.8017 39.7876 29.0495 39.2854C29.0495 39.2854 29.0495 39.1012 29.2542 38.7736C29.459 38.4461 29.5818 37.9548 29.7456 37.3201C29.9381 36.5402 30.0682 35.7461 30.1345 34.9454C30.2554 33.8843 30.2554 32.8129 30.1345 31.7518C30.0504 31.1356 29.9204 30.5266 29.7456 29.9298Z" fill="white"/>
</svg>
